<svg width="763" height="263" viewBox="0 0 763 263" fill="none" xmlns="http://www.w3.org/2000/svg">
<path d="M192.509 37.3095C179.413 38.8248 167.454 43.2896 156.929 50.6767C150.49 55.1686 144.051 61.4192 139.694 67.3993C139.072 68.2652 138.504 69.0229 138.477 69.077C138.423 69.1311 137.395 68.8605 136.204 68.4546C133.039 67.4264 129.17 66.4793 125.787 65.9652C121.729 65.3428 113.829 65.3428 109.824 65.9652C93.2926 68.5088 79.3315 77.4112 70.1053 91.2385C63.747 100.79 60.3108 113.129 60.7978 124.494L60.9602 128.066L60.0944 128.201C59.6074 128.283 58.1463 128.472 56.7935 128.634C45.6192 129.987 33.4979 135.183 24.2987 142.57C12.5562 152.014 4.331 165.462 1.24657 180.317C0.218421 185.269 -0.0250873 187.678 0.00196916 193.712C0.00196916 200.287 0.38076 203.67 1.70653 209.163C7.686 233.489 27.0314 252.43 51.3551 257.707C58.6063 259.276 51.301 259.195 168.672 259.195C271.649 259.195 277.195 259.168 280.28 258.708C297.84 256.083 312.666 248.615 324.517 236.411C328.359 232.488 330.388 229.998 333.283 225.696C339.588 216.333 343.592 205.997 345.405 194.253C345.892 191.114 346 189.301 346 183.565C346 175.934 345.567 172.2 343.998 165.787C339.128 145.817 326.601 128.905 308.879 118.379C299.869 113.021 289.533 109.558 279.008 108.34C275.843 107.961 275.816 107.961 275.816 105.932C275.816 103.361 274.219 95.0268 272.921 90.8867C270.891 84.3114 267.374 76.7077 263.965 71.5394C251.735 52.9497 233.12 40.9895 211.286 37.7154C206.28 36.9577 197.217 36.7683 192.509 37.3095Z" fill="#A3DAFF"/>
<path d="M697.585 259.83V161.692C697.585 152.141 704.229 147.85 711.981 147.85C719.732 147.85 726.376 152.141 726.376 161.692V259.83H697.585Z" fill="#A3DAFF"/>
<path d="M661.397 259.83V215.121H626.377V259.83H597.863V161.968C597.863 152.694 604.646 147.85 612.12 147.85C619.595 147.85 626.377 152.694 626.377 161.968V191.036H661.397V161.968C661.397 152.694 668.18 147.85 675.654 147.85C683.129 147.85 689.912 152.694 689.912 161.968V259.83H661.397Z" fill="#A3DAFF"/>
<path d="M538.908 191.867V218.166C538.908 231.178 548.182 237.683 558.148 237.683C564.515 237.683 569.083 236.715 572.82 235.054C574.896 234.085 577.388 232.562 580.018 232.147C585.001 231.316 589.154 232.839 591.922 237.407C595.382 243.082 593.168 249.311 588.323 253.186C580.71 259.415 568.806 262.184 558.148 262.184C534.201 262.184 510.393 250.003 510.393 219.412V190.621C510.393 160.031 534.201 147.85 558.148 147.85C570.467 147.85 580.018 150.757 585.416 154.632C591.091 158.646 593.86 165.29 590.538 171.104C587.769 175.949 582.648 177.887 577.942 177.056C574.758 176.502 572.405 174.98 570.329 174.149C567.007 172.904 563.823 172.35 558.148 172.35C548.182 172.35 538.908 178.856 538.908 191.867Z" fill="#A3DAFF"/>
<path d="M475.71 259.83V161.692C475.71 152.141 482.354 147.85 490.105 147.85C497.857 147.85 504.501 152.141 504.501 161.692V259.83H475.71Z" fill="#A3DAFF"/>
<path d="M409.172 156.155L442.947 216.229V161C442.947 152.556 448.899 147.85 455.543 147.85C462.187 147.85 468.139 152.556 468.139 161V248.203C468.139 256.647 460.803 260.938 454.574 261.492C447.93 262.045 439.901 259.415 436.441 253.463L402.667 193.666V259.83H377.475V161.968C377.475 153.386 384.949 148.819 391.316 148.127C397.961 147.434 405.712 150.203 409.172 156.155Z" fill="#A3DAFF"/>
<path d="M733.905 75.5959V14.5532C733.905 5.14077 740.549 0.849792 748.162 0.849792C755.914 0.849792 762.419 5.14077 762.419 14.5532V74.4886C762.419 105.356 737.781 115.184 717.848 115.184C697.916 115.184 673.278 105.356 673.278 74.4886V14.5532C673.278 5.14077 679.922 0.849792 687.535 0.849792C695.286 0.849792 701.792 5.14077 701.792 14.5532V75.5959C701.792 85.9773 710.512 91.0988 717.848 91.0988C725.185 91.0988 733.905 85.9773 733.905 75.5959Z" fill="#A3DAFF"/>
<path d="M665.796 39.1918C665.796 52.3415 658.876 62.4461 649.048 68.6749L675.347 112.831H644.065L623.302 75.5959H605.584V112.831H577.208V23.2736C577.208 7.35544 582.192 1.40344 598.802 1.40344H624.271C648.217 1.40344 665.796 12.7538 665.796 37.5307V39.1918ZM605.584 29.2256V52.2031H623.579C632.853 52.2031 637.697 46.2511 637.697 39.1918V38.2228C637.697 31.1635 632.853 25.2115 623.579 25.2115H609.598C606.415 25.2115 605.584 25.9036 605.584 29.2256Z" fill="#A3DAFF"/>
<path d="M470.137 112.831L505.711 12.3385C508.479 4.5871 516.092 0.849792 523.567 0.849792C530.626 0.849792 537.962 4.86393 540.592 12.3385L576.72 112.831H546.268L540.869 95.6666H505.296L500.036 112.831H470.137ZM523.152 37.8076L512.493 72.2738H533.671L523.152 37.8076Z" fill="#A3DAFF"/>
<path d="M441.009 112.831V68.1213H405.989V112.831H377.475V14.9685C377.475 5.69445 384.257 0.849792 391.732 0.849792C399.206 0.849792 405.989 5.69445 405.989 14.9685V44.0364H441.009V14.9685C441.009 5.69445 447.791 0.849792 455.266 0.849792C462.741 0.849792 469.523 5.69445 469.523 14.9685V112.831H441.009Z" fill="#A3DAFF"/>
</svg>
