<svg width="986" height="127" viewBox="0 0 986 127" fill="none" xmlns="http://www.w3.org/2000/svg">
<path d="M109.335 0.175759C101.898 1.03638 95.1055 3.57214 89.1278 7.76767C85.4706 10.3188 81.8133 13.8689 79.3393 17.2653C78.9858 17.757 78.6631 18.1873 78.6478 18.2181C78.617 18.2488 78.0331 18.0951 77.357 17.8646C75.5591 17.2806 73.3616 16.7427 71.4408 16.4507C69.1358 16.0973 64.6487 16.0973 62.3745 16.4507C52.9854 17.8953 45.0562 22.9515 39.8162 30.8047C36.205 36.2297 34.2534 43.2376 34.53 49.6923L34.6222 51.7209L34.1305 51.7977C33.8539 51.8438 33.0241 51.9514 32.2558 52.0436C25.9093 52.812 19.0251 55.7627 13.8004 59.9582C7.13126 65.3218 2.45979 72.9598 0.707986 81.397C0.124052 84.2093 -0.0142483 85.5771 0.00111838 89.0042C0.00111838 92.7387 0.216252 94.6597 0.969219 97.7795C4.36525 111.596 15.3524 122.353 29.1671 125.35C33.2853 126.242 29.1363 126.195 95.797 126.195C154.283 126.195 157.433 126.18 159.185 125.919C169.157 124.428 177.578 120.186 184.309 113.255C186.491 111.027 187.644 109.613 189.288 107.17C192.868 101.852 195.143 95.9814 196.172 89.3116C196.449 87.5289 196.51 86.4992 196.51 83.2411C196.51 78.9073 196.264 76.7865 195.373 73.1442C192.607 61.8024 185.492 52.1973 175.427 46.219C170.31 43.1761 164.44 41.209 158.462 40.5174C156.664 40.3023 156.649 40.3023 156.649 39.1496C156.649 37.6897 155.742 32.9562 155.005 30.6049C153.852 26.8704 151.855 22.5519 149.918 19.6166C142.973 9.05861 132.4 2.26584 119.999 0.406283C117.157 -0.024028 112.009 -0.131606 109.335 0.175759Z" fill="#A3DAFF"/>
<path d="M957.024 121.83V23.6916C957.024 14.1407 963.668 9.84973 971.419 9.84973C979.171 9.84973 985.815 14.1407 985.815 23.6916V121.83H957.024Z" fill="#A3DAFF"/>
<path d="M920.836 121.83V77.1212H885.816V121.83H857.302V23.9684C857.302 14.6944 864.084 9.84973 871.559 9.84973C879.034 9.84973 885.816 14.6944 885.816 23.9684V53.0364H920.836V23.9684C920.836 14.6944 927.619 9.84973 935.093 9.84973C942.568 9.84973 949.35 14.6944 949.35 23.9684V121.83H920.836Z" fill="#A3DAFF"/>
<path d="M798.346 53.8669V80.1664C798.346 93.1778 807.62 99.6835 817.586 99.6835C823.954 99.6835 828.522 98.7146 832.259 97.0535C834.335 96.0846 836.827 94.562 839.457 94.1467C844.44 93.3162 848.592 94.8388 851.361 99.4066C854.821 105.082 852.606 111.311 847.762 115.186C840.149 121.415 828.245 124.184 817.586 124.184C793.64 124.184 769.832 112.003 769.832 81.4122V52.6211C769.832 22.0306 793.64 9.84973 817.586 9.84973C829.906 9.84973 839.457 12.7565 844.855 16.6323C850.53 20.6464 853.298 27.2905 849.976 33.1041C847.208 37.9487 842.087 39.8866 837.38 39.0561C834.197 38.5024 831.844 36.9798 829.767 36.1493C826.445 34.9035 823.262 34.3498 817.586 34.3498C807.62 34.3498 798.346 40.8555 798.346 53.8669Z" fill="#A3DAFF"/>
<path d="M735.148 121.83V23.6916C735.148 14.1407 741.792 9.84973 749.544 9.84973C757.295 9.84973 763.94 14.1407 763.94 23.6916V121.83H735.148Z" fill="#A3DAFF"/>
<path d="M668.611 18.1549L702.385 78.2286V22.9995C702.385 14.556 708.337 9.84973 714.981 9.84973C721.626 9.84973 727.578 14.556 727.578 22.9995V110.203C727.578 118.647 720.241 122.938 714.013 123.492C707.368 124.045 699.34 121.415 695.88 115.463L662.105 55.6663V121.83H636.913V23.9684C636.913 15.3865 644.388 10.8187 650.755 10.1266C657.399 9.43447 665.151 12.2029 668.611 18.1549Z" fill="#A3DAFF"/>
<path d="M600.905 84.5958V23.5532C600.905 14.1407 607.549 9.84973 615.162 9.84973C622.914 9.84973 629.419 14.1407 629.419 23.5532V83.4885C629.419 114.356 604.781 124.184 584.848 124.184C564.916 124.184 540.278 114.356 540.278 83.4885V23.5532C540.278 14.1407 546.922 9.84973 554.535 9.84973C562.286 9.84973 568.792 14.1407 568.792 23.5532V84.5958C568.792 94.9772 577.512 100.099 584.848 100.099C592.185 100.099 600.905 94.9772 600.905 84.5958Z" fill="#A3DAFF"/>
<path d="M532.796 48.1918C532.796 61.3415 525.876 71.4461 516.048 77.6749L542.347 121.831H511.065L490.302 84.5959H472.584V121.831H444.208V32.2736C444.208 16.3554 449.192 10.4034 465.802 10.4034H491.271C515.217 10.4034 532.796 21.7538 532.796 46.5307V48.1918ZM472.584 38.2256V61.2031H490.579C499.853 61.2031 504.697 55.2511 504.697 48.1918V47.2228C504.697 40.1635 499.853 34.2115 490.579 34.2115H476.598C473.415 34.2115 472.584 34.9036 472.584 38.2256Z" fill="#A3DAFF"/>
<path d="M337.137 121.83L372.711 21.3385C375.479 13.587 383.092 9.84973 390.567 9.84973C397.626 9.84973 404.962 13.8639 407.592 21.3385L443.72 121.83H413.268L407.869 104.667H372.296L367.036 121.83H337.137ZM390.152 46.8075L379.493 81.2738H400.671L390.152 46.8075Z" fill="#A3DAFF"/>
<path d="M308.009 121.83V77.1212H272.989V121.83H244.475V23.9684C244.475 14.6944 251.257 9.84973 258.732 9.84973C266.206 9.84973 272.989 14.6944 272.989 23.9684V53.0364H308.009V23.9684C308.009 14.6944 314.791 9.84973 322.266 9.84973C329.741 9.84973 336.523 14.6944 336.523 23.9684V121.83H308.009Z" fill="#A3DAFF"/>
</svg>
